<svg width="800" height="600" xmlns="http://www.w3.org/2000/svg">
 <g>
  <title>Layer 1</title>
  <g id="svg_25">
   <g id="svg_5">
    <g id="svg_6">
     <path fill="#ffffff" d="m632.29999,55.35001l-464.6,0c-6.8,0 -12.2,5.5 -12.2,12.2l0,222.8c0,6.8 5.5,12.2 12.2,12.2s12.3,-5.5 12.3,-12.2l0,-210.5l440.2,0l0,440.2l-211.9,0c-6.8,0 -12.3,5.5 -12.3,12.3s5.5,12.3 12.3,12.3l224,0c6.8,0 12.3,-5.5 12.3,-12.3l0,-464.7c0,-6.8 -5.5,-12.3 -12.3,-12.3z" id="svg_7"/>
     <path fill="#ffffff" d="m155.39999,532.25001c0,6.8 5.5,12.3 12.2,12.3l170.4,0c6.8,0 12.3,-5.5 12.3,-12.3l0,-170.3c0,-6.8 -5.5,-12.3 -12.3,-12.3l-170.3,0c-6.8,0 -12.2,5.5 -12.2,12.3l0,170.3l-0.1,0zm24.5,-158.1l145.9,0l0,145.9l-145.9,0l0,-145.9z" id="svg_8"/>
     <path fill="#ffffff" d="m378.29999,321.65001c2.4,2.4 5.5,3.6 8.7,3.6s6.3,-1.2 8.7,-3.6l138.6,-138.7l0,79.9c0,6.8 5.5,12.3 12.3,12.3s12.3,-5.5 12.3,-12.3l0,-109.4c0,-6.8 -5.5,-12.3 -12.3,-12.3l-109.5,0c-6.8,0 -12.3,5.5 -12.3,12.3s5.5,12.3 12.3,12.3l79.9,0l-138.7,138.6c-4.8,4.8 -4.8,12.5 0,17.3z" id="svg_9"/>
    </g>
   </g>
   <g id="svg_10"/>
   <g id="svg_11"/>
   <g id="svg_12"/>
   <g id="svg_13"/>
   <g id="svg_14"/>
   <g id="svg_15"/>
   <g id="svg_16"/>
   <g id="svg_17"/>
   <g id="svg_18"/>
   <g id="svg_19"/>
   <g id="svg_20"/>
   <g id="svg_21"/>
   <g id="svg_22"/>
   <g id="svg_23"/>
   <g id="svg_24"/>
  </g>
 </g>

</svg>